<svg xmlns="http://www.w3.org/2000/svg" width="272" height="46" viewBox="0 0 272 46" fill="none"><path d="M16.2575 21.8755C19.4955 22.6755 22.695 24.5193 22.6854 28.4073C22.6743 32.9433 18.4568 35.165 13.6329 35.1531L1.42889 35.1232L1.42924 34.9792C1.5383 34.5474 2.40884 31.8856 2.41485 29.4376L2.45057 14.8936C2.45658 12.4456 1.59912 9.77949 1.49219 9.34723L1.49254 9.20323L13.3005 9.23223C18.1605 9.24416 21.5372 12.2045 21.528 15.9485C21.52 19.2244 18.9957 20.9822 16.2575 21.8755ZM11.3887 10.7755L8.04072 10.7673L8.01499 21.2433L11.255 21.2512C14.171 21.2584 15.6537 18.526 15.6601 15.934C15.666 13.522 14.3047 10.7827 11.3887 10.7755ZM11.7287 33.6004C15.2566 33.6091 16.8814 31.6691 16.8896 28.3571C16.8972 25.2251 15.1752 22.8089 11.7552 22.8005L8.01119 22.7913L7.98467 33.5912L11.7287 33.6004ZM36.1426 32.1124C38.0146 32.117 39.708 31.5451 41.7638 30.0382L41.9076 30.1105C40.9293 32.6641 38.1501 35.5733 33.7942 35.5626C29.2942 35.5516 24.7297 32.4804 24.7453 26.1444C24.7596 20.3124 28.5481 16.8297 33.9121 16.8429C39.8161 16.8574 42.1453 21.2551 42.1343 25.7551L30.5063 25.7265C30.8572 29.4354 32.5066 32.1035 36.1426 32.1124ZM33.8006 18.2826C31.2446 18.2763 30.4449 21.4064 30.4378 24.3224L30.4364 24.8624L36.9191 23.7983C36.8538 21.0621 36.1766 18.2884 33.8006 18.2826ZM62.0445 29.584C62.0384 32.032 62.8959 34.6981 62.9668 35.1303L62.9665 35.2743L55.8385 35.2568L55.8389 35.1128C55.9479 34.681 56.7825 32.0191 56.7885 29.5711L56.803 23.6671C56.8092 21.1471 55.2995 20.2074 53.6796 20.1674C52.4916 20.1285 51.3745 20.5938 50.3286 21.3832L50.3085 29.5552C50.3025 32.0032 51.1599 34.6693 51.2669 35.1015L51.2665 35.2455L44.1385 35.228L44.1389 35.084C44.212 34.6522 45.0825 31.9903 45.0885 29.5423L45.1051 22.7744C45.1111 20.3264 44.2537 17.6603 44.1827 17.2281L44.1831 17.0841L50.3391 17.0992L50.3314 20.2312C51.5239 18.3981 53.4356 16.8908 56.1716 16.8975C59.3396 16.9053 62.0708 18.856 62.0607 22.96L62.0445 29.584ZM93.2422 9.42853L98.1382 9.44056L98.1378 9.58456C97.9209 9.98002 96.4024 12.6043 95.6406 14.9784L89.1466 35.3386L85.8346 35.3304L80.4018 19.369L75.2866 35.3045L72.0106 35.2965L65.0048 14.8672C64.2187 12.4533 62.7488 9.96566 62.4619 9.49695L62.4623 9.35295L71.2823 9.37461L71.2819 9.51861C71.2088 9.98643 70.338 12.7563 71.1957 15.3144L75.6627 28.7534L79.5081 16.7748L78.8647 14.9012C78.0786 12.4873 76.5368 9.99951 76.2859 9.5309L76.2863 9.3869L85.0702 9.40847L85.0699 9.55247C84.9606 10.0562 84.1619 12.7902 85.0196 15.3484L89.4866 28.8234L93.4049 16.485C94.3844 13.4274 93.3844 10.1489 93.2419 9.57253L93.2422 9.42853ZM107.685 32.2881C109.557 32.2927 111.251 31.7208 113.307 30.2139L113.45 30.2862C112.472 32.8398 109.693 35.749 105.337 35.7383C100.837 35.7273 96.2725 32.656 96.288 26.3201C96.3023 20.4881 100.091 17.0054 105.455 17.0185C111.359 17.033 113.688 21.4308 113.677 25.9308L102.049 25.9022C102.4 29.6111 104.049 32.2791 107.685 32.2881ZM105.343 18.4583C102.787 18.452 101.988 21.582 101.981 24.498L101.979 25.038L108.462 23.974C108.397 21.2378 107.719 18.4641 105.343 18.4583ZM123.417 35.7827C121.725 35.7786 119.242 35.3765 116.293 34.2172L116.305 29.1772L116.449 29.1776C118.568 31.3428 121.045 34.1929 123.745 34.1995C125.149 34.203 126.483 33.4862 126.486 31.9742C126.491 30.2822 124.764 29.666 121.815 28.6148C118.038 27.2375 115.846 25.4681 115.853 22.5521C115.862 19.0601 118.927 17.0516 123.391 17.0626C125.011 17.0666 127.458 17.3966 129.904 18.4106L129.892 23.2346L129.748 23.2342C127.738 20.9253 125.403 18.5435 122.883 18.5373C121.551 18.5341 120.254 19.1789 120.25 20.5469C120.246 22.2389 122.189 22.8557 125.03 23.8346C129.275 25.3211 130.71 27.2326 130.704 29.8246C130.693 34.0006 127.125 35.7918 123.417 35.7827ZM142.418 32.3374C143.174 32.3392 144.146 32.1256 145.156 31.5881C144.286 33.782 142.553 35.8297 139.529 35.8223C136.505 35.8149 134.674 33.7223 134.683 30.0864L134.711 18.8904L132.083 18.8839L132.086 17.4439C135.762 15.869 137.964 13.7144 139.806 11.2349L139.986 11.2353L139.971 17.3193L144.867 17.3313L144.863 18.9153L139.967 18.9033L139.941 29.5953C139.936 31.5033 140.942 32.3337 142.418 32.3374Z" fill="white"/><path d="M150.286 35.8487C148.558 35.8444 147.158 34.437 147.162 32.709C147.166 30.981 148.574 29.5805 150.302 29.5847C152.03 29.589 153.43 30.9964 153.426 32.7244C153.422 34.4524 152.014 35.8529 150.286 35.8487Z" fill="#FDE7E8"/><path d="M166.439 9.60828C173.243 9.62498 178.882 14.7148 178.863 22.4908C178.843 30.5548 173.179 35.5449 166.375 35.5282L156.151 35.5031L156.151 35.3591C156.26 34.9274 157.131 32.2655 157.137 29.8175L157.173 15.2735C157.179 12.8255 156.321 10.1594 156.214 9.72717L156.215 9.58317L166.439 9.60828ZM164.795 34.0483C170.195 34.0616 172.62 28.5595 172.599 22.4754C172.577 16.6434 170.251 11.0936 164.851 11.0804L162.763 11.0753L162.707 34.0432L164.795 34.0483ZM192.306 32.4959C194.178 32.5005 195.872 31.9286 197.927 30.4217L198.071 30.494C197.093 33.0476 194.314 35.9568 189.958 35.9461C185.458 35.9351 180.893 32.8638 180.909 26.5279C180.923 20.6959 184.712 17.2132 190.076 17.2263C195.98 17.2408 198.309 21.6386 198.298 26.1386L186.67 26.11C187.021 29.8189 188.67 32.4869 192.306 32.4959ZM189.964 18.6661C187.408 18.6598 186.609 21.7898 186.601 24.7058L186.6 25.2458L193.083 24.1817C193.017 21.4456 192.34 18.6719 189.964 18.6661ZM218.257 17.5115L218.257 17.6555C218.112 17.9432 216.63 20.2436 215.761 22.3294L210.293 35.636L207.053 35.6281L201.504 22.7264C200.502 20.492 198.96 18.0402 198.601 17.5713L198.601 17.4633L207.169 17.4843L207.169 17.5923C206.988 18.0239 206.19 20.3259 207.085 22.4161L210.629 30.7049L213.997 22.4691C214.866 20.3472 213.972 18.041 213.793 17.6086L213.793 17.5006L218.257 17.5115Z" fill="#EE6C4D"/></svg>