<svg xmlns="http://www.w3.org/2000/svg" width="272" height="46" viewBox="0 0 272 46" fill="none"><path d="M29.2481 9.41539C29.175 9.84721 28.3045 12.5091 28.2985 14.9571L28.2628 29.501C28.2568 31.949 29.1142 34.6151 29.1852 35.0473L29.1848 35.1913L21.7328 35.173L21.7332 35.029C21.8422 34.5973 22.7128 31.9354 22.7188 29.4874L22.7571 13.8995L14.8208 35.156L13.0209 35.1516L13.0209 35.1156L12.8049 35.1511L4.46886 13.9626C4.43215 14.2505 4.43136 14.5745 4.43056 14.8985L4.40095 26.9584C4.39228 30.4864 6.07491 34.3066 6.21732 34.9549L6.21688 35.1349L0.924891 35.1219L0.925333 34.9419C1.07092 34.2943 2.77229 30.4824 2.78095 26.9545L2.81057 14.8945C2.81658 12.4465 1.52704 9.81532 1.38419 9.34697L1.38454 9.20297L8.29652 9.21994L15.7387 27.8863L22.7685 9.25548L29.2485 9.27139L29.2481 9.41539ZM31.9787 35.1982L31.9791 35.0542C32.0522 34.6224 32.9227 31.9605 32.9287 29.5125L32.9453 22.7445C32.9513 20.2965 32.1299 17.6305 32.0229 17.1982L32.0233 17.0542L38.1793 17.0693L38.1487 29.5253C38.1427 31.9733 39.0001 34.6394 39.1071 35.0717L39.1067 35.2157L31.9787 35.1982ZM41.3252 35.2211L41.3256 35.0771C41.3986 34.6453 42.2692 31.9834 42.2752 29.5354L42.3118 14.6315C42.3178 12.1835 41.4241 9.62529 41.2811 9.19294L41.2815 9.04894L47.5832 8.34441L47.5312 29.5483C47.5251 31.9963 48.3826 34.6625 48.4535 35.0946L48.4532 35.2386L41.3252 35.2211ZM50.3955 35.2434L50.3958 35.0994C50.4689 34.6676 51.3394 32.0057 51.3455 29.5577L51.3821 14.6538C51.3881 12.2058 50.4943 9.64756 50.3514 9.21521L50.3518 9.07121L56.6535 8.36668L56.6014 29.5706C56.5954 32.0186 57.4529 34.6847 57.5238 35.1169L57.5235 35.2609L50.3955 35.2434ZM78.0594 26.7433C80.0664 30.4202 80.8159 33.0501 83.0787 35.1797L83.0783 35.3237L76.3824 35.3072C75.3766 34.4047 73.9804 31.1973 72.9066 28.6747C71.475 25.2511 69.4989 23.6623 67.9158 23.2984L66.4398 23.2948L66.4244 29.5947C66.4183 32.0427 67.2758 34.7088 67.3467 35.141L67.3464 35.285L59.8584 35.2666L59.8588 35.1226C59.9678 34.6909 60.8384 32.029 60.8444 29.581L60.8801 15.0371C60.8861 12.5891 60.0286 9.92297 59.9217 9.49071L59.9221 9.34671L71.766 9.3758C76.842 9.38826 80.2554 12.0967 80.2455 16.1286C80.2353 20.2686 77.134 22.421 72.6691 22.7701C74.9359 23.2796 76.8048 24.5442 78.0594 26.7433ZM66.4707 10.7308L66.4434 21.8188L69.7194 21.8268C72.6354 21.834 74.26 19.966 74.2688 16.402C74.2772 12.982 72.7707 10.7463 69.8547 10.7391L66.4707 10.7308ZM67.196 23.2246C67.052 23.2243 66.944 23.224 66.8359 23.2597C66.9439 23.26 67.0879 23.2604 67.196 23.2246ZM91.95 35.7054C86.91 35.6931 82.562 32.4424 82.5773 26.2144C82.5926 19.9864 86.956 16.9731 91.996 16.9855C97.036 16.9979 101.456 20.0687 101.441 26.2607C101.426 32.4887 96.99 35.7178 91.95 35.7054ZM91.9536 34.2294C94.5456 34.2358 95.5636 30.1703 95.5733 26.2463C95.5828 22.3583 94.5844 18.4319 91.9925 18.4255C89.4005 18.4191 88.4187 22.3767 88.4093 26.2287C88.3997 30.1167 89.3256 34.223 91.9536 34.2294ZM110.901 35.752C109.209 35.7478 106.726 35.3457 103.777 34.1865L103.79 29.1465L103.934 29.1468C106.052 31.3121 108.529 34.1621 111.229 34.1688C112.633 34.1722 113.967 33.4555 113.971 31.9435C113.975 30.2515 112.248 29.6353 109.299 28.584C105.522 27.2067 103.331 25.4374 103.338 22.5214C103.346 19.0294 106.411 17.0209 110.875 17.0319C112.495 17.0358 114.943 17.3658 117.388 18.3799L117.376 23.2038L117.232 23.2035C115.222 20.8945 112.888 18.5128 110.368 18.5066C109.036 18.5033 107.738 19.1482 107.735 20.5162C107.731 22.2082 109.673 22.8249 112.515 23.8039C116.759 25.2903 118.194 27.2019 118.188 29.7939C118.178 33.9698 114.609 35.7611 110.901 35.752ZM131.592 32.3468C133.464 32.3514 135.157 31.7795 137.213 30.2726L137.357 30.3449C136.378 32.8985 133.599 35.8077 129.243 35.797C124.743 35.786 120.179 32.7148 120.194 26.3788C120.209 20.5468 123.997 17.0641 129.361 17.0772C135.265 17.0917 137.594 21.4895 137.583 25.9895L125.955 25.9609C126.306 29.6698 127.956 32.3378 131.592 32.3468ZM129.25 18.517C126.694 18.5107 125.894 21.6408 125.887 24.5567L125.885 25.0967L132.368 24.0327C132.303 21.2965 131.626 18.5228 129.25 18.517Z" fill="#C9E5FE"/><path d="M142.693 35.83C140.965 35.8258 139.564 34.4184 139.568 32.6904C139.573 30.9624 140.98 29.5618 142.708 29.5661C144.436 29.5703 145.837 30.9778 145.832 32.7057C145.828 34.4337 144.421 35.8343 142.693 35.83Z" fill="#FDE7E8"/><path d="M158.522 35.9409C155.894 35.9345 152.476 35.1341 148.916 33.6493L148.931 27.6373L149.183 27.638C151.768 30.3083 155.323 34.2411 159.103 34.2503C161.299 34.2557 163.246 32.9645 163.252 30.5165C163.259 27.4925 160.239 26.0811 156.318 24.6315C151.93 23.0727 148.587 20.8685 148.597 16.9085C148.607 12.9845 151.964 9.21273 158.336 9.22838C161.684 9.2366 165.101 10.397 167.295 11.2664L167.281 17.1344L167.101 17.1339C164.658 14.7519 161.032 10.855 157.54 10.8464C155.056 10.8403 153.54 12.4566 153.536 14.2206C153.529 16.8846 157.018 18.1532 161.01 19.747C166.836 22.1733 168.34 25.309 168.333 28.189C168.32 33.481 163.598 35.9534 158.522 35.9409ZM180 32.4296C180.756 32.4315 181.728 32.2179 182.738 31.6804C181.868 33.8742 180.135 35.922 177.111 35.9146C174.087 35.9071 172.256 33.8146 172.265 30.1786L172.293 18.9827L169.665 18.9762L169.668 17.5362C173.344 15.9613 175.545 13.8067 177.388 11.3272L177.568 11.3276L177.553 17.4116L182.449 17.4236L182.445 19.0076L177.549 18.9956L177.522 29.6876C177.518 31.5955 178.524 32.426 180 32.4296ZM201.815 29.9272C201.809 32.3752 202.667 35.0413 202.774 35.4736L202.773 35.6176L197.769 35.6053C197.447 34.9205 197.018 33.7314 196.805 32.4349C195.504 34.4477 193.7 35.9193 190.964 35.9126C187.796 35.9048 185.029 33.954 185.039 29.85L185.056 23.118C185.062 20.67 184.204 18.0039 184.133 17.5718L184.134 17.4278L190.326 17.443L190.297 29.1429C190.291 31.6269 191.729 32.5664 193.385 32.5705C194.465 32.5732 195.618 32.144 196.663 31.4986C196.628 31.1025 196.593 30.7424 196.594 30.3824L196.612 23.1464C196.618 20.6984 195.76 18.0323 195.689 17.6001L195.69 17.4561L201.846 17.4712L201.815 29.9272ZM222.239 29.9774C222.233 32.4254 223.055 35.0914 223.162 35.5236L223.161 35.6676L218.337 35.6558C217.979 34.7549 217.477 34.0697 217.228 32.9891C215.71 35.2173 213.548 36.004 211.712 35.9995C208.076 35.9906 204.448 32.8857 204.464 26.5497C204.479 20.2857 208.014 17.2704 211.794 17.2797C213.846 17.2847 215.824 18.2256 217.008 20.0285L217.02 15.0605C217.026 12.6125 215.808 10.0895 215.665 9.65716L215.629 9.51307L222.291 8.77342L222.239 29.9774ZM214.023 33.3052C215.067 33.3078 216.04 32.8421 217.05 31.9806C217.015 31.6925 216.98 31.3325 216.981 30.9725L217.004 21.5045C216.142 20.7464 215.171 20.276 214.127 20.2734C211.391 20.2667 210.16 22.9997 210.152 26.4917C210.143 29.8757 211.071 33.2979 214.023 33.3052ZM225.689 35.6739L225.689 35.5299C225.763 35.098 226.633 32.4362 226.639 29.9882L226.656 23.2202C226.662 20.7722 225.84 18.1062 225.733 17.6739L225.734 17.5299L231.89 17.545L231.859 30.001C231.853 32.449 232.71 35.1151 232.817 35.5474L232.817 35.6914L225.689 35.6739ZM244.071 36.079C239.031 36.0666 234.683 32.8159 234.698 26.5879C234.713 20.36 239.077 17.3467 244.117 17.359C249.157 17.3714 253.577 20.4423 253.562 26.6343C253.547 32.8623 249.111 36.0914 244.071 36.079ZM244.074 34.603C246.666 34.6094 247.684 30.5438 247.694 26.6199C247.703 22.7319 246.705 18.8054 244.113 18.799C241.521 18.7927 240.539 22.7503 240.53 26.6023C240.52 30.4903 241.446 34.5965 244.074 34.603Z" fill="#EE6C4D"/></svg>