<svg xmlns="http://www.w3.org/2000/svg" width="165" height="141" viewBox="0 0 165 141" fill="none"><path d="M82.814 0L26.3634 31.7332L25.4771 109.15L82.6355 140.729L83.1433 141L138.203 110.211L138.412 109.908V31.7425L82.814 0Z" fill="#EE6C4D"/><path d="M28.4437 32.7356L83.0231 2.06949L136.873 32.7356V108.428L83.0231 138.465L27.6035 107.681L28.4437 32.7356Z" fill="white"/><path d="M32.7465 114.22H8.56836L17.7306 101.754L8.56836 89.2874H32.7465V114.22Z" fill="#EE6C4D"/><path d="M30.9646 34.0125L83.3466 4.63245L135.027 34.0125V106.528L83.3466 135.303L30.2075 105.812L30.9646 34.0125Z" fill="#EE6C4D"/><path d="M20.0171 111.7L32.1062 119.105L32.5955 111.7L32.1062 99.2339L20.0171 111.7Z" fill="#EE6C4D"/><path d="M33.2049 114.467L19.5 106.337L33.2141 92.4795L33.7527 106.152L33.2049 114.467ZM21.2358 106.075L32.2908 112.69L32.7217 106.139L32.2785 94.9345L21.2358 106.075Z" fill="white"/><path d="M133.029 114.22H157.207L148.045 101.754L157.207 89.2874H133.029V114.22Z" fill="#EE6C4D"/><path d="M145.755 105.532L133.666 112.937L133.162 105.532L133.666 93.0655L145.755 105.532Z" fill="#EE6C4D"/><path d="M132.571 114.467L132.007 106.207L132.558 92.4795L146.272 106.337L132.571 114.467ZM133.494 94.9345L133.038 106.195L133.485 112.69L144.601 106.013L133.494 94.9345Z" fill="white"/><path d="M17.9059 64.5028H10.4641L19.0815 75.6522L2.0128 61.872H9.65773L0 51.7928H6.34615L17.9059 64.5028ZM147.113 65.7889H154.554L145.937 76.9383L163 63.1612H155.342L165 53.082H158.654L147.113 65.7889Z" fill="#EE6C4D"/><path d="M145.755 80.8891H20.0171V105.819H145.755V80.8891Z" fill="#EE6C4D"/><path d="M146.272 106.337H19.5V80.371H146.272V106.337ZM20.5341 105.3H145.238V81.4227H20.5341V105.3Z" fill="white"/><path d="M64.0708 116.641C64.1009 116.596 64.1417 116.559 64.1895 116.534C64.2373 116.509 64.2906 116.496 64.3447 116.496C64.4673 116.503 64.5846 116.548 64.6802 116.626C65.0497 116.876 65.4867 117.007 65.9328 117.002C66.3113 117.002 66.5976 116.851 66.5976 116.527C66.5976 115.7 63.8615 116.151 63.8615 114.309C63.8615 113.319 64.674 112.767 65.7081 112.767C66.3068 112.754 66.8959 112.92 67.4008 113.242C67.4548 113.28 67.4985 113.331 67.528 113.391C67.5576 113.45 67.572 113.515 67.5701 113.582C67.5705 113.663 67.5481 113.743 67.5055 113.813L67.3762 113.998C67.3448 114.052 67.3001 114.098 67.2463 114.13C67.1924 114.163 67.1312 114.181 67.0684 114.183C66.9709 114.174 66.876 114.147 66.7884 114.103C66.4807 113.945 66.14 113.862 65.7943 113.862C65.4003 113.862 65.1603 114.072 65.1603 114.306C65.1603 115.148 67.8963 114.692 67.8963 116.465C67.8963 117.461 67.0869 118.088 65.8497 118.088C65.1523 118.107 64.4741 117.857 63.9569 117.387C63.9169 117.352 63.8847 117.309 63.8625 117.261C63.8402 117.212 63.8283 117.16 63.8277 117.107C63.8229 117.019 63.8515 116.933 63.9077 116.866L64.0708 116.641ZM71.9035 117.172C71.9412 117.229 71.9605 117.297 71.9589 117.366C71.9629 117.436 71.9472 117.507 71.9135 117.569C71.8798 117.631 71.8294 117.682 71.768 117.717C71.3872 117.951 70.9466 118.069 70.5 118.057C69.3521 118.057 68.9274 117.316 68.9274 116.015V111.879C68.9282 111.769 68.9722 111.663 69.0499 111.586C69.1277 111.508 69.2329 111.463 69.3428 111.463H69.8014C69.9119 111.463 70.0179 111.506 70.0963 111.584C70.1747 111.662 70.2192 111.768 70.22 111.879V112.881H71.451C71.5615 112.882 71.6672 112.927 71.745 113.005C71.8229 113.084 71.8665 113.19 71.8665 113.301V113.686C71.8657 113.797 71.8217 113.902 71.7439 113.98C71.6662 114.058 71.561 114.102 71.451 114.103H70.22V115.953C70.22 116.499 70.4046 116.879 70.8355 116.879C70.9559 116.883 71.0761 116.864 71.1894 116.823C71.2704 116.789 71.357 116.77 71.4449 116.767C71.5189 116.767 71.5915 116.788 71.6531 116.83C71.7146 116.871 71.7622 116.93 71.7896 116.999L71.9035 117.172ZM72.6913 116.465C72.6913 115.346 73.5162 114.815 74.5379 114.815C74.9446 114.81 75.3439 114.925 75.6859 115.145V114.991C75.6859 114.251 75.4459 113.841 74.7626 113.841C74.4684 113.835 74.1755 113.882 73.8978 113.979C73.8317 114 73.7636 114.014 73.6947 114.019C73.6141 114.021 73.5347 114 73.4664 113.957C73.398 113.914 73.3436 113.852 73.31 113.779L73.2453 113.64C73.2205 113.581 73.2049 113.519 73.1992 113.455C73.2032 113.38 73.2277 113.308 73.2701 113.246C73.3124 113.184 73.3709 113.134 73.4392 113.103C73.8964 112.886 74.3951 112.77 74.9011 112.764C76.3999 112.764 76.9231 113.535 76.9231 114.871V117.542C76.9223 117.653 76.878 117.759 76.7997 117.837C76.7213 117.916 76.6153 117.96 76.5046 117.961H76.2153C76.105 117.959 75.9998 117.915 75.9222 117.836C75.8445 117.758 75.8006 117.652 75.7998 117.542V117.372C75.6184 117.591 75.3877 117.765 75.1267 117.878C74.8657 117.991 74.5817 118.041 74.2979 118.023C74.0865 118.042 73.8735 118.016 73.6733 117.945C73.4731 117.874 73.2905 117.761 73.138 117.613C72.9855 117.466 72.8666 117.286 72.7895 117.088C72.7124 116.89 72.6789 116.678 72.6913 116.465ZM75.6828 115.941C75.4215 115.763 75.1091 115.675 74.7934 115.691C74.3594 115.691 73.984 115.892 73.984 116.326C73.984 116.712 74.2917 116.922 74.7041 116.922C74.8925 116.935 75.081 116.9 75.2522 116.82C75.4233 116.74 75.5715 116.618 75.6828 116.465V115.941ZM81.0995 117.175C81.1403 117.231 81.161 117.299 81.158 117.369C81.1614 117.44 81.1451 117.51 81.1108 117.572C81.0766 117.634 81.0258 117.686 80.9641 117.72C80.5834 117.955 80.1427 118.073 79.6961 118.06C78.5481 118.06 78.1234 117.32 78.1234 116.018V111.879C78.125 111.769 78.1697 111.663 78.248 111.585C78.3262 111.507 78.4318 111.463 78.542 111.463H78.9975C79.108 111.463 79.214 111.506 79.2924 111.584C79.3708 111.662 79.4152 111.768 79.4161 111.879V112.881H80.6471C80.7579 112.882 80.8639 112.927 80.9422 113.005C81.0205 113.084 81.0649 113.19 81.0657 113.301V113.686C81.0641 113.797 81.0194 113.902 80.9411 113.98C80.8629 114.058 80.7574 114.102 80.6471 114.103H79.4161V115.953C79.4161 116.499 79.6007 116.879 80.0162 116.879C80.1367 116.883 80.2569 116.864 80.3701 116.823C80.4521 116.788 80.5398 116.77 80.6287 116.767C80.7026 116.767 80.775 116.789 80.8365 116.83C80.8979 116.871 80.9456 116.93 80.9734 116.999L81.0995 117.193V117.175ZM81.8874 116.468C81.8874 115.349 82.7153 114.818 83.734 114.818C84.1407 114.813 84.54 114.928 84.882 115.148V114.994C84.882 114.254 84.6389 113.844 83.9433 113.844C83.6481 113.838 83.3541 113.885 83.0754 113.982C83.0104 114.003 82.9433 114.017 82.8753 114.023C82.7947 114.025 82.7152 114.003 82.6467 113.961C82.5783 113.918 82.524 113.856 82.4906 113.782L82.426 113.643C82.4001 113.584 82.3835 113.522 82.3768 113.458C82.3808 113.383 82.4053 113.311 82.4477 113.249C82.49 113.187 82.5485 113.138 82.6168 113.107C83.0741 112.889 83.5727 112.774 84.0787 112.767C85.5806 112.767 86.1007 113.538 86.1007 114.874V117.545C86.0999 117.656 86.0556 117.762 85.9773 117.84C85.8989 117.919 85.7929 117.963 85.6822 117.964H85.396C85.2852 117.963 85.1792 117.919 85.1009 117.84C85.0226 117.762 84.9782 117.656 84.9774 117.545V117.375C84.7961 117.595 84.5655 117.768 84.3045 117.881C84.0434 117.994 83.7593 118.044 83.4755 118.026C83.2656 118.042 83.0546 118.014 82.8567 117.942C82.6588 117.87 82.4785 117.756 82.3281 117.609C82.1776 117.461 82.0604 117.283 81.9844 117.086C81.9084 116.89 81.8753 116.679 81.8874 116.468ZM84.882 115.944C84.6193 115.766 84.3061 115.678 83.9895 115.694C83.5555 115.694 83.18 115.895 83.18 116.33C83.18 116.715 83.4878 116.925 83.9033 116.925C84.0915 116.937 84.2798 116.901 84.4508 116.822C84.6218 116.742 84.77 116.62 84.882 116.468V115.944ZM88.7168 113.443C88.9222 113.232 89.1685 113.065 89.4405 112.953C89.7126 112.841 90.0046 112.786 90.2987 112.792C91.0773 112.792 91.5913 113.137 91.776 113.603C91.9745 113.34 92.2334 113.129 92.5308 112.988C92.8282 112.847 93.1552 112.779 93.4841 112.792C94.4074 112.792 95.106 113.251 95.106 114.642V117.535C95.1052 117.646 95.0608 117.753 94.9825 117.831C94.9042 117.91 94.7982 117.954 94.6874 117.955H94.2319C94.1212 117.954 94.0152 117.91 93.9369 117.831C93.8585 117.753 93.8142 117.646 93.8134 117.535V114.979C93.8134 114.343 93.5579 114.007 92.9455 114.007C92.7346 113.999 92.5255 114.049 92.3414 114.153C92.1573 114.256 92.0053 114.409 91.9021 114.593C91.9021 114.673 91.9021 114.849 91.9021 114.972V117.535C91.9013 117.646 91.857 117.753 91.7787 117.831C91.7003 117.91 91.5943 117.954 91.4836 117.955H91.0373C90.9266 117.954 90.8206 117.91 90.7422 117.831C90.6639 117.753 90.6196 117.646 90.6188 117.535V114.886C90.6324 114.77 90.6202 114.653 90.5831 114.543C90.5459 114.433 90.4848 114.332 90.4042 114.248C90.3235 114.164 90.2252 114.099 90.1165 114.058C90.0078 114.017 89.8913 114.001 89.7755 114.01C89.5679 114.003 89.362 114.049 89.1769 114.144C88.9918 114.238 88.8335 114.378 88.7168 114.55V117.542C88.7168 117.652 88.6731 117.759 88.5953 117.837C88.5174 117.916 88.4118 117.96 88.3013 117.961H87.8273C87.7166 117.96 87.6106 117.916 87.5322 117.837C87.4539 117.759 87.4096 117.653 87.4088 117.542V113.295C87.4104 113.184 87.4551 113.079 87.5333 113.001C87.6115 112.923 87.7171 112.879 87.8273 112.878H88.2828C88.3933 112.878 88.4993 112.922 88.5777 113C88.6561 113.078 88.7006 113.184 88.7014 113.295V113.44L88.7168 113.443ZM98.0359 111.056C98.0426 111.158 98.0286 111.26 97.9947 111.357C97.9609 111.454 97.9079 111.543 97.8389 111.619C97.7699 111.694 97.6864 111.755 97.5933 111.798C97.5003 111.841 97.3996 111.864 97.2973 111.867C97.09 111.867 96.8911 111.784 96.7445 111.637C96.5979 111.49 96.5156 111.291 96.5156 111.083C96.5156 110.876 96.5979 110.676 96.7445 110.529C96.8911 110.382 97.09 110.3 97.2973 110.3C97.3954 110.3 97.4924 110.319 97.5828 110.357C97.6733 110.395 97.7552 110.451 97.824 110.521C97.8928 110.591 97.9469 110.674 97.9833 110.765C98.0197 110.857 98.0376 110.954 98.0359 111.052V111.056ZM97.4974 112.881C97.6076 112.883 97.7128 112.928 97.7905 113.006C97.8681 113.085 97.9121 113.19 97.9128 113.301V117.539C97.9128 117.649 97.8692 117.755 97.7913 117.834C97.7135 117.913 97.6078 117.957 97.4974 117.958H97.0388C96.9286 117.956 96.8233 117.912 96.7457 117.833C96.668 117.755 96.6241 117.649 96.6233 117.539V113.295C96.6249 113.185 96.6693 113.08 96.7469 113.003C96.8246 112.926 96.9294 112.882 97.0388 112.881H97.4974ZM102.923 114.168C102.644 114.03 102.336 113.962 102.025 113.967C101.837 113.965 101.65 114.002 101.476 114.074C101.302 114.146 101.145 114.252 101.013 114.387C100.881 114.521 100.778 114.681 100.709 114.856C100.64 115.031 100.607 115.219 100.612 115.407C100.608 115.6 100.643 115.792 100.715 115.971C100.786 116.15 100.894 116.312 101.03 116.448C101.167 116.584 101.329 116.691 101.508 116.763C101.687 116.834 101.878 116.868 102.071 116.863C102.419 116.869 102.761 116.768 103.049 116.573C103.131 116.519 103.226 116.488 103.323 116.484C103.39 116.484 103.456 116.499 103.515 116.528C103.575 116.558 103.627 116.6 103.668 116.653L103.862 116.894C103.917 116.959 103.946 117.043 103.942 117.128C103.944 117.195 103.931 117.262 103.905 117.323C103.878 117.384 103.838 117.439 103.788 117.483C103.291 117.895 102.66 118.107 102.015 118.078C100.338 118.078 99.2301 117.014 99.2301 115.417C99.2192 115.067 99.2794 114.718 99.407 114.392C99.5346 114.066 99.7271 113.769 99.9726 113.52C100.218 113.271 100.512 113.074 100.835 112.942C101.159 112.81 101.506 112.745 101.855 112.752C102.436 112.729 103.012 112.863 103.523 113.14C103.587 113.18 103.639 113.235 103.674 113.301C103.709 113.368 103.726 113.442 103.723 113.517C103.728 113.582 103.712 113.647 103.677 113.702L103.508 113.992C103.469 114.061 103.414 114.119 103.346 114.161C103.279 114.204 103.202 114.228 103.123 114.232C103.054 114.22 102.987 114.198 102.923 114.168Z" fill="white"/><path d="M30.0352 92.6583C30.0352 91.6529 30.2886 90.8726 30.7953 90.3174C31.3651 89.785 32.1152 89.4889 32.8943 89.4889C33.6734 89.4889 34.4235 89.785 34.9933 90.3174C35.498 90.8726 35.7535 91.6529 35.7535 92.6583V94.3917C35.7535 95.428 35.498 96.2144 34.9933 96.7572C34.4173 97.2772 33.6695 97.5649 32.8943 97.5649C32.1191 97.5649 31.3713 97.2772 30.7953 96.7572C30.2875 96.2144 30.0352 95.428 30.0352 94.3917V92.6583ZM32.8943 96.2268C33.1225 96.2346 33.3496 96.1914 33.5591 96.1003C33.7304 96.0178 33.8786 95.8938 33.99 95.7395C34.1056 95.5727 34.1853 95.3837 34.2239 95.1843C34.2687 94.9506 34.2904 94.713 34.2885 94.4749V92.5627C34.2903 92.3312 34.2645 92.1003 34.2116 91.875C34.166 91.6763 34.0835 91.4879 33.9684 91.3198C33.8555 91.1645 33.708 91.0378 33.5375 90.9497C33.3354 90.8583 33.1161 90.811 32.8943 90.811C32.6725 90.811 32.4532 90.8583 32.2511 90.9497C32.08 91.0368 31.9322 91.1637 31.8202 91.3198C31.7041 91.4877 31.6206 91.6761 31.574 91.875C31.5227 92.1006 31.4969 92.3313 31.497 92.5627V94.4749C31.4947 94.7131 31.5174 94.9509 31.5648 95.1843C31.6009 95.3838 31.6797 95.5732 31.7956 95.7395C31.9075 95.8946 32.0568 96.0187 32.2295 96.1003C32.4387 96.1924 32.666 96.2356 32.8943 96.2268Z" fill="white"/><path d="M37.1044 91.9089H38.6648V90.777C38.6617 90.628 38.6887 90.4798 38.7442 90.3414C38.7997 90.2031 38.8827 90.0774 38.988 89.9721C39.0909 89.8651 39.215 89.7808 39.3522 89.7245C39.4894 89.6682 39.6369 89.6412 39.7851 89.6452H42.0226V90.9837H40.3606C40.1606 90.9837 40.0529 91.0947 40.0529 91.3168V91.9089H42.2072V93.2413H40.0529V97.4173H38.6556V93.2351H37.0952L37.1044 91.9089Z" fill="white"/><path d="M43.8843 91.9089H45.4478V90.777C45.4424 90.629 45.4669 90.4814 45.5198 90.3431C45.5727 90.2048 45.6529 90.0786 45.7556 89.972C45.8586 89.8652 45.9827 89.781 46.1199 89.7247C46.2571 89.6685 46.4045 89.6414 46.5527 89.6451H48.7901V90.9837H47.1282C46.9312 90.9837 46.8204 91.0947 46.8204 91.3167V91.9089H48.9748V93.2413H46.8204V97.4173H45.4262V93.2351H43.8628L43.8843 91.9089Z" fill="white"/><path d="M50.8091 96.0787H52.6557V93.2351H50.926V91.9089H54.0499V96.0849H55.6472V97.4173H50.8091V96.0787ZM54.41 90.2712C54.411 90.4142 54.3827 90.5559 54.3269 90.6876C54.2739 90.8127 54.1965 90.926 54.0991 91.0207C54.0007 91.1148 53.886 91.19 53.7606 91.2427C53.6322 91.2977 53.494 91.326 53.3543 91.326C53.2147 91.326 53.0765 91.2977 52.9481 91.2427C52.8249 91.1893 52.7123 91.114 52.6157 91.0207C52.5183 90.926 52.4409 90.8127 52.3879 90.6876C52.3331 90.5556 52.3048 90.4141 52.3048 90.2712C52.3048 90.1283 52.3331 89.9868 52.3879 89.8548C52.4409 89.7297 52.5183 89.6164 52.6157 89.5217C52.7123 89.4284 52.8249 89.3532 52.9481 89.2997C53.0765 89.2447 53.2147 89.2164 53.3543 89.2164C53.494 89.2164 53.6322 89.2447 53.7606 89.2997C53.886 89.3524 54.0007 89.4276 54.0991 89.5217C54.1965 89.6164 54.2739 89.7297 54.3269 89.8548C54.3827 89.9865 54.411 90.1282 54.41 90.2712Z" fill="white"/><path d="M62.852 95.391C62.7476 96.0048 62.4318 96.5624 61.9595 96.967C61.4269 97.3882 60.7596 97.6009 60.0821 97.5653C59.6955 97.5691 59.3112 97.5055 58.9465 97.3772C58.6053 97.2606 58.2912 97.0759 58.0232 96.8344C57.7568 96.5895 57.5468 96.2896 57.4076 95.9554C57.2541 95.5787 57.1787 95.1747 57.186 94.768V94.6353C57.1794 94.2246 57.2548 93.8167 57.4076 93.4356C57.5466 93.094 57.7552 92.7853 58.0202 92.5293C58.2852 92.2733 58.6007 92.0756 58.9465 91.949C59.3057 91.8144 59.6863 91.7465 60.0698 91.7485C60.7439 91.7178 61.4066 91.93 61.938 92.3469C62.4158 92.7495 62.7353 93.3092 62.8397 93.926L61.4671 94.2807C61.4246 93.9597 61.2762 93.6622 61.0454 93.4356C60.9117 93.3121 60.7544 93.2171 60.583 93.1561C60.4117 93.0952 60.2298 93.0696 60.0483 93.0809C59.854 93.0798 59.6615 93.1176 59.482 93.1919C59.3076 93.2618 59.1495 93.3668 59.0172 93.5004C58.8821 93.6444 58.7774 93.8144 58.7095 94C58.6278 94.2102 58.588 94.4345 58.5925 94.66V94.7248C58.5871 94.9474 58.6269 95.1688 58.7095 95.3755C58.7777 95.5528 58.8826 95.7136 59.0172 95.8474C59.151 95.9731 59.3092 96.0697 59.482 96.1312C59.6642 96.1936 59.8557 96.2248 60.0483 96.2237C60.403 96.2523 60.7551 96.1418 61.03 95.9153C61.265 95.6811 61.4183 95.3771 61.4671 95.0486L62.852 95.391Z" fill="white"/><path d="M64.3696 96.0787H66.2162V93.2351H64.4866V91.9089H67.6135V96.0849H69.2077V97.4173H64.3696V96.0787ZM67.9705 90.2712C67.9715 90.4142 67.9432 90.5559 67.8874 90.6876C67.8356 90.8126 67.7592 90.9259 67.6627 91.0207C67.5639 91.1141 67.4492 91.1893 67.3242 91.2427C67.1959 91.298 67.0576 91.3264 66.9179 91.326C66.7772 91.3273 66.6377 91.299 66.5086 91.2427C66.3854 91.1893 66.2728 91.114 66.1762 91.0207C66.0789 90.926 66.0014 90.8127 65.9485 90.6876C65.8936 90.5556 65.8654 90.4141 65.8654 90.2712C65.8654 90.1283 65.8936 89.9868 65.9485 89.8548C66.0014 89.7297 66.0789 89.6164 66.1762 89.5218C66.2728 89.4284 66.3854 89.3532 66.5086 89.2997C66.6377 89.2435 66.7772 89.2151 66.9179 89.2164C67.0576 89.2161 67.1959 89.2444 67.3242 89.2997C67.4492 89.3531 67.5639 89.4283 67.6627 89.5218C67.7592 89.6166 67.8356 89.7298 67.8874 89.8548C67.9432 89.9865 67.9715 90.1282 67.9705 90.2712Z" fill="white"/><path d="M74.609 96.6123C74.495 96.9219 74.2775 97.1824 73.9935 97.3494C73.7087 97.498 73.3912 97.5722 73.0702 97.5653C72.7528 97.5665 72.4386 97.5025 72.1469 97.3772C71.8527 97.2498 71.5892 97.0605 71.3744 96.822C71.1435 96.5627 70.9648 96.2611 70.8481 95.9338C70.7134 95.5527 70.6478 95.1506 70.6542 94.7464V94.5675C70.6495 94.1679 70.713 93.7705 70.842 93.3924C70.9546 93.0665 71.1279 92.7651 71.3529 92.5042C71.5599 92.2663 71.8148 92.075 72.1007 91.9428C72.3906 91.8112 72.7058 91.7449 73.0241 91.7485C73.3518 91.7348 73.6777 91.8038 73.972 91.949C74.2211 92.0904 74.4201 92.306 74.5413 92.5658H74.7414V91.9089H76.1386V95.7518C76.1386 95.9739 76.2371 96.0849 76.4464 96.0849H76.6557V97.4173H75.7047C75.4784 97.4272 75.2572 97.3474 75.0892 97.1952C75.0105 97.1219 74.9486 97.0324 74.9077 96.9328C74.8668 96.8333 74.8478 96.726 74.8522 96.6185L74.609 96.6123ZM73.378 96.2329C73.5598 96.2418 73.7414 96.2102 73.9095 96.1404C74.0777 96.0705 74.2283 95.9641 74.3505 95.8289C74.6087 95.5212 74.7397 95.1262 74.7168 94.7248V94.5922C74.7402 94.1898 74.6091 93.7936 74.3505 93.4849C74.092 93.2263 73.7417 93.0811 73.3764 93.0811C73.0112 93.0811 72.6609 93.2263 72.4024 93.4849C72.1385 93.7916 72.0009 94.1875 72.0177 94.5922V94.7248C71.9963 95.126 72.1271 95.5204 72.3839 95.8289C72.508 95.9647 72.6609 96.0709 72.8313 96.1397C73.0017 96.2086 73.1854 96.2383 73.3687 96.2268L73.378 96.2329Z" fill="white"/><path d="M77.8003 96.0788H79.7269V90.9837H77.8649V89.6513H81.1242V96.0911H82.9185V97.4235H77.8003V96.0788Z" fill="white"/><path d="M92.7886 94.4812V97.4111H91.3267V89.639H94.3612C94.7187 89.6308 95.0739 89.697 95.4046 89.8333C95.6828 89.9504 95.9334 90.1248 96.1401 90.3452C96.3357 90.5528 96.4866 90.7984 96.5833 91.0669C96.6834 91.331 96.7345 91.6111 96.7341 91.8935V92.1588C96.7342 92.4492 96.6832 92.7374 96.5833 93.01C96.4862 93.2847 96.3356 93.5374 96.1401 93.7533C95.9354 93.9798 95.6846 94.1596 95.4046 94.2807C95.0748 94.4207 94.7193 94.489 94.3612 94.4812H92.7886ZM92.7886 93.0809H94.2197C94.5008 93.0957 94.7766 93.0006 94.9891 92.8157C95.0816 92.7266 95.1546 92.6191 95.2033 92.5002C95.2521 92.3812 95.2755 92.2534 95.2722 92.1248V91.9922C95.2763 91.864 95.2531 91.7364 95.2043 91.6179C95.1555 91.4993 95.0821 91.3925 94.9891 91.3044C94.7773 91.1183 94.5009 91.0231 94.2197 91.0392H92.7886V93.0809Z" fill="white"/><path d="M101.729 96.6123C101.615 96.9215 101.397 97.1818 101.114 97.3494C100.829 97.498 100.511 97.5722 100.19 97.5653C99.868 97.5679 99.5484 97.5039 99.2517 97.3772C98.9585 97.2497 98.696 97.0603 98.4823 96.822C98.2514 96.5627 98.0727 96.2611 97.9561 95.9338C97.8213 95.5527 97.7557 95.1506 97.7622 94.7464V94.5675C97.7559 94.1678 97.8195 93.7701 97.9499 93.3924C98.0625 93.0665 98.2359 92.7651 98.4608 92.5042C98.6664 92.2648 98.9216 92.0732 99.2086 91.9427C99.4956 91.8122 99.8076 91.746 100.123 91.7485C100.45 91.7348 100.776 91.8038 101.071 91.949C101.32 92.0904 101.519 92.306 101.64 92.5658H101.84V91.9089H103.237V95.7518C103.237 95.9739 103.336 96.0849 103.545 96.0849H103.754V97.4173H102.794C102.568 97.4272 102.347 97.3474 102.179 97.1952C102.099 97.1222 102.037 97.0328 101.995 96.9332C101.954 96.8337 101.935 96.7263 101.939 96.6185L101.729 96.6123ZM100.498 96.2329C100.681 96.2423 100.863 96.2109 101.031 96.141C101.2 96.0712 101.351 95.9645 101.474 95.8289C101.731 95.5204 101.861 95.126 101.84 94.7248V94.5922C101.862 94.19 101.731 93.7944 101.474 93.4849C101.215 93.2263 100.865 93.0811 100.5 93.0811C100.134 93.0811 99.7842 93.2263 99.5257 93.4849C99.267 93.7936 99.136 94.1898 99.1594 94.5922V94.7248C99.1365 95.1262 99.2675 95.5212 99.5257 95.8289C99.6474 95.9618 99.7968 96.0663 99.9632 96.135C100.13 96.2037 100.309 96.2351 100.489 96.2268L100.498 96.2329Z" fill="white"/><path d="M104.69 91.9089H107.017V92.7108H107.217C107.306 92.422 107.492 92.1727 107.743 92.0045C108.007 91.833 108.318 91.7459 108.632 91.7547C108.876 91.7442 109.119 91.7846 109.347 91.8732C109.574 91.9619 109.78 92.0969 109.953 92.2697C110.317 92.7088 110.496 93.2733 110.451 93.8427V94.0678L109.011 94.2004V94.0678C109.025 93.8046 108.942 93.5454 108.777 93.34C108.688 93.2451 108.58 93.1715 108.459 93.1245C108.338 93.0775 108.208 93.0584 108.078 93.0685C107.941 93.0607 107.804 93.0845 107.678 93.1379C107.552 93.1914 107.439 93.2732 107.349 93.377C107.154 93.6442 107.059 93.9718 107.081 94.3022V96.0787H108.334V97.4111H104.558V96.0787H105.687V93.2351H104.69V91.9089Z" fill="white"/><path d="M111.581 91.9089H113.209V89.6451H114.606V91.9089H116.588V93.2413H114.606V95.7518C114.606 95.9739 114.705 96.0849 114.914 96.0849H116.398V97.4173H114.071C113.957 97.4222 113.843 97.4031 113.737 97.3611C113.631 97.3191 113.535 97.2553 113.455 97.1737C113.376 97.0921 113.314 96.9955 113.273 96.8896C113.232 96.7836 113.212 96.6705 113.215 96.5568V93.2351H111.587L111.581 91.9089Z" fill="white"/><path d="M119.912 97.4111H118.515V91.9089H119.912V92.7324H120.112C120.231 92.4299 120.448 92.1759 120.727 92.0107C121.026 91.8358 121.367 91.7472 121.712 91.7547C121.967 91.753 122.22 91.7958 122.46 91.8812C122.691 91.9669 122.901 92.1015 123.076 92.2759C123.263 92.4683 123.405 92.7001 123.491 92.9545C123.597 93.2692 123.648 93.6 123.642 93.9321V97.4173H122.245V94.2807C122.262 93.9484 122.162 93.6207 121.962 93.3554C121.861 93.2405 121.735 93.1502 121.595 93.0914C121.454 93.0326 121.301 93.0069 121.149 93.0161C120.973 93.0039 120.796 93.0354 120.635 93.1081C120.474 93.1807 120.334 93.2922 120.226 93.4325C120.007 93.7621 119.899 94.1534 119.918 94.549L119.912 97.4111Z" fill="white"/><path d="M126.526 95.1134C126.533 95.2701 126.573 95.4236 126.643 95.5637C126.715 95.7003 126.813 95.821 126.933 95.9183C127.058 96.0192 127.199 96.0975 127.351 96.1496C127.514 96.2054 127.684 96.2336 127.856 96.2329C128.134 96.251 128.41 96.1878 128.653 96.051C128.824 95.9444 128.962 95.793 129.053 95.613L130.25 96.2792C130.173 96.4342 130.08 96.581 129.973 96.7171C129.842 96.8796 129.687 97.0201 129.512 97.1335C129.299 97.2694 129.068 97.3733 128.825 97.4419C128.517 97.5274 128.197 97.5679 127.877 97.5622C127.492 97.5674 127.109 97.5004 126.748 97.3648C126.417 97.2358 126.117 97.0382 125.868 96.785C125.613 96.521 125.416 96.2056 125.292 95.8597C125.149 95.4646 125.079 95.0465 125.086 94.6261V94.5582C125.082 94.163 125.156 93.7709 125.304 93.4047C125.438 93.0708 125.639 92.7683 125.895 92.5165C126.149 92.271 126.448 92.0772 126.776 91.9459C127.119 91.8068 127.486 91.7366 127.856 91.7393C128.28 91.726 128.701 91.8115 129.087 91.9891C129.407 92.1355 129.694 92.3454 129.93 92.6059C130.147 92.8524 130.312 93.1397 130.416 93.451C130.518 93.7383 130.571 94.0406 130.573 94.3454V95.0887L126.526 95.1134ZM127.847 93.013C127.535 92.9996 127.229 93.0968 126.982 93.2875C126.776 93.4421 126.626 93.6581 126.551 93.9044H129.142C129.12 93.7746 129.071 93.6506 129 93.5399C128.928 93.4292 128.836 93.334 128.727 93.2598C128.467 93.0854 128.159 92.9989 127.847 93.013Z" fill="white"/><path d="M131.814 91.9089H134.14V92.7108H134.337C134.429 92.4231 134.614 92.1745 134.864 92.0045C135.129 91.8329 135.44 91.7458 135.756 91.7547C136 91.7442 136.243 91.7846 136.47 91.8732C136.698 91.9619 136.904 92.0969 137.076 92.2697C137.441 92.7088 137.62 93.2733 137.575 93.8427V94.0678L136.135 94.2004V94.0678C136.147 93.8048 136.064 93.5461 135.901 93.34C135.812 93.2451 135.703 93.1715 135.582 93.1245C135.461 93.0775 135.331 93.0584 135.202 93.0685C135.065 93.0605 134.928 93.0841 134.802 93.1376C134.675 93.1911 134.563 93.273 134.473 93.377C134.278 93.6442 134.183 93.9718 134.205 94.3022V96.0787H135.47V97.4111H131.678V96.0787H132.811V93.2351H131.814V91.9089Z" fill="white"/><path d="M101.298 72.7622C105.339 72.7622 106.823 71.0166 106.823 66.745V58.3837C106.823 54.4082 108.749 52.1444 110.602 51.065C110.73 50.9878 110.835 50.879 110.908 50.749C110.981 50.6191 111.02 50.4724 111.02 50.3232C111.02 50.174 110.981 50.0273 110.908 49.8974C110.835 49.7674 110.73 49.6586 110.602 49.5815C109.424 48.7899 108.461 47.7162 107.801 46.4576C107.141 45.199 106.805 43.7953 106.823 42.3737V34.2006C106.823 29.5928 105.561 28.2543 101.52 28.2543H65.228C61.187 28.2543 59.9252 29.5928 59.9252 34.2006V42.4107C59.9432 43.8327 59.6066 45.2367 58.9461 46.4953C58.2856 47.7539 57.322 48.8275 56.1427 49.6185C56.016 49.6962 55.9114 49.8052 55.8388 49.9351C55.7662 50.065 55.728 50.2114 55.728 50.3602C55.728 50.5091 55.7662 50.6555 55.8388 50.7853C55.9114 50.9152 56.016 51.0242 56.1427 51.102C57.9893 52.1444 59.9252 54.4082 59.9252 58.4208V66.7481C59.9252 71.0197 61.4086 72.7653 65.4496 72.7653L101.298 72.7622ZM83.2816 65.1474C78.9421 65.1474 75.7936 63.8458 72.8637 61.2829C72.6478 61.0855 72.4765 60.8441 72.3613 60.575C72.2461 60.3058 72.1897 60.0151 72.1959 59.7223C72.178 59.2479 72.3371 58.7839 72.6421 58.4208L73.5654 57.2333C73.7297 56.9884 73.9501 56.7865 74.2082 56.6443C74.4662 56.5021 74.7545 56.4239 75.0489 56.416C75.7163 56.4539 76.3582 56.6866 76.8955 57.0853C78.939 58.4393 81.3397 59.1503 83.7894 59.127C85.8299 59.127 87.4611 58.2727 87.4611 56.5271C87.4611 51.9964 72.4082 54.4853 72.4082 44.3044C72.4082 38.8423 76.8585 35.7982 82.6415 35.7982C86.7194 35.7982 89.7201 36.9856 91.9453 38.3982C92.2337 38.6119 92.4677 38.891 92.6282 39.2126C92.7886 39.5342 92.871 39.8892 92.8686 40.2487C92.8774 40.689 92.747 41.1208 92.4962 41.4824L91.8283 42.4847C91.3482 43.154 90.7911 43.4871 90.0863 43.4871C89.5418 43.4509 89.011 43.2995 88.529 43.043C86.8221 42.1612 84.9248 41.7142 83.0046 41.7414C80.8195 41.7414 79.5207 42.9289 79.5207 44.1564C79.5207 48.8012 94.5736 46.2752 94.5736 56.157C94.589 61.727 90.1017 65.1474 83.2816 65.1474Z" fill="white"/></svg>